<mxfile host="app.diagrams.net" modified="2023-12-15T18:20:39.247Z" agent="Mozilla/5.0 (Macintosh; Intel Mac OS X 10_15_7) AppleWebKit/537.36 (KHTML, like Gecko) Chrome/120.0.0.0 Safari/537.36" etag="qqK2QVZFv-F_W06mdj_p" version="22.1.11" type="github">
  <diagram name="Page-1" id="zj5VvPuPhSLLUAuFrYxf">
    <mxGraphModel dx="2074" dy="775" grid="1" gridSize="10" guides="1" tooltips="1" connect="1" arrows="1" fold="1" page="1" pageScale="1" pageWidth="850" pageHeight="1100" math="0" shadow="0">
      <root>
        <mxCell id="0" />
        <mxCell id="1" parent="0" />
        <mxCell id="qCF6ly-BR2pwlYbQlXf5-1" value="Animals" style="rounded=0;whiteSpace=wrap;html=1;" parent="1" vertex="1">
          <mxGeometry x="340" y="110" width="120" height="60" as="geometry" />
        </mxCell>
        <mxCell id="qCF6ly-BR2pwlYbQlXf5-2" value="Birds" style="rounded=0;whiteSpace=wrap;html=1;" parent="1" vertex="1">
          <mxGeometry x="140" y="280" width="120" height="60" as="geometry" />
        </mxCell>
        <mxCell id="qCF6ly-BR2pwlYbQlXf5-3" value="Fish" style="rounded=0;whiteSpace=wrap;html=1;" parent="1" vertex="1">
          <mxGeometry x="350" y="280" width="120" height="60" as="geometry" />
        </mxCell>
        <mxCell id="qCF6ly-BR2pwlYbQlXf5-4" value="Insects" style="rounded=0;whiteSpace=wrap;html=1;" parent="1" vertex="1">
          <mxGeometry x="580" y="280" width="120" height="60" as="geometry" />
        </mxCell>
        <mxCell id="qCF6ly-BR2pwlYbQlXf5-5" value="" style="endArrow=classic;html=1;rounded=0;entryX=0;entryY=0.75;entryDx=0;entryDy=0;" parent="1" edge="1">
          <mxGeometry width="50" height="50" relative="1" as="geometry">
            <mxPoint x="210" y="295" as="sourcePoint" />
            <mxPoint x="340" y="170" as="targetPoint" />
            <Array as="points">
              <mxPoint x="230" y="275" />
            </Array>
          </mxGeometry>
        </mxCell>
        <mxCell id="qCF6ly-BR2pwlYbQlXf5-6" value="" style="endArrow=classic;html=1;rounded=0;entryX=0.5;entryY=1;entryDx=0;entryDy=0;" parent="1" target="qCF6ly-BR2pwlYbQlXf5-1" edge="1">
          <mxGeometry width="50" height="50" relative="1" as="geometry">
            <mxPoint x="400" y="280" as="sourcePoint" />
            <mxPoint x="450" y="230" as="targetPoint" />
            <Array as="points" />
          </mxGeometry>
        </mxCell>
        <mxCell id="qCF6ly-BR2pwlYbQlXf5-7" value="" style="endArrow=classic;html=1;rounded=0;entryX=1;entryY=1;entryDx=0;entryDy=0;" parent="1" target="qCF6ly-BR2pwlYbQlXf5-1" edge="1">
          <mxGeometry width="50" height="50" relative="1" as="geometry">
            <mxPoint x="630" y="280" as="sourcePoint" />
            <mxPoint x="680" y="230" as="targetPoint" />
          </mxGeometry>
        </mxCell>
        <mxCell id="qCF6ly-BR2pwlYbQlXf5-8" value="Humming Bird" style="rounded=0;whiteSpace=wrap;html=1;" parent="1" vertex="1">
          <mxGeometry x="-370" y="440" width="120" height="60" as="geometry" />
        </mxCell>
        <mxCell id="qCF6ly-BR2pwlYbQlXf5-9" value="Bald Eagle" style="rounded=0;whiteSpace=wrap;html=1;" parent="1" vertex="1">
          <mxGeometry x="-230" y="440" width="120" height="60" as="geometry" />
        </mxCell>
        <mxCell id="qCF6ly-BR2pwlYbQlXf5-10" value="Vulture" style="rounded=0;whiteSpace=wrap;html=1;" parent="1" vertex="1">
          <mxGeometry x="-100" y="440" width="120" height="60" as="geometry" />
        </mxCell>
        <mxCell id="qCF6ly-BR2pwlYbQlXf5-11" value="Goldfish" style="rounded=0;whiteSpace=wrap;html=1;" parent="1" vertex="1">
          <mxGeometry x="100" y="440" width="120" height="60" as="geometry" />
        </mxCell>
        <mxCell id="qCF6ly-BR2pwlYbQlXf5-12" value="Blue Whale" style="rounded=0;whiteSpace=wrap;html=1;" parent="1" vertex="1">
          <mxGeometry x="230" y="440" width="120" height="60" as="geometry" />
        </mxCell>
        <mxCell id="qCF6ly-BR2pwlYbQlXf5-13" value="Orca" style="rounded=0;whiteSpace=wrap;html=1;" parent="1" vertex="1">
          <mxGeometry x="360" y="440" width="120" height="60" as="geometry" />
        </mxCell>
        <mxCell id="qCF6ly-BR2pwlYbQlXf5-14" value="" style="endArrow=classic;html=1;rounded=0;exitX=1;exitY=0;exitDx=0;exitDy=0;entryX=0;entryY=1;entryDx=0;entryDy=0;" parent="1" source="qCF6ly-BR2pwlYbQlXf5-10" target="qCF6ly-BR2pwlYbQlXf5-2" edge="1">
          <mxGeometry width="50" height="50" relative="1" as="geometry">
            <mxPoint x="50" y="430" as="sourcePoint" />
            <mxPoint x="100" y="380" as="targetPoint" />
          </mxGeometry>
        </mxCell>
        <mxCell id="qCF6ly-BR2pwlYbQlXf5-15" value="" style="endArrow=classic;html=1;rounded=0;entryX=0;entryY=0.5;entryDx=0;entryDy=0;" parent="1" target="qCF6ly-BR2pwlYbQlXf5-2" edge="1">
          <mxGeometry width="50" height="50" relative="1" as="geometry">
            <mxPoint x="-140" y="440" as="sourcePoint" />
            <mxPoint x="-90" y="390" as="targetPoint" />
          </mxGeometry>
        </mxCell>
        <mxCell id="qCF6ly-BR2pwlYbQlXf5-16" value="" style="endArrow=classic;html=1;rounded=0;entryX=0;entryY=0.25;entryDx=0;entryDy=0;" parent="1" target="qCF6ly-BR2pwlYbQlXf5-2" edge="1">
          <mxGeometry width="50" height="50" relative="1" as="geometry">
            <mxPoint x="-280" y="440" as="sourcePoint" />
            <mxPoint x="-230" y="390" as="targetPoint" />
          </mxGeometry>
        </mxCell>
        <mxCell id="q0EASoXGR-8S1qR7F3os-1" value="" style="endArrow=classic;html=1;rounded=0;exitX=0.667;exitY=-0.017;exitDx=0;exitDy=0;exitPerimeter=0;" edge="1" parent="1" source="qCF6ly-BR2pwlYbQlXf5-11" target="qCF6ly-BR2pwlYbQlXf5-3">
          <mxGeometry width="50" height="50" relative="1" as="geometry">
            <mxPoint x="190" y="430" as="sourcePoint" />
            <mxPoint x="240" y="380" as="targetPoint" />
          </mxGeometry>
        </mxCell>
        <mxCell id="q0EASoXGR-8S1qR7F3os-2" value="" style="endArrow=classic;html=1;rounded=0;entryX=0.4;entryY=1.017;entryDx=0;entryDy=0;entryPerimeter=0;" edge="1" parent="1" target="qCF6ly-BR2pwlYbQlXf5-3">
          <mxGeometry width="50" height="50" relative="1" as="geometry">
            <mxPoint x="290" y="440" as="sourcePoint" />
            <mxPoint x="340" y="390" as="targetPoint" />
          </mxGeometry>
        </mxCell>
        <mxCell id="q0EASoXGR-8S1qR7F3os-4" value="" style="endArrow=classic;html=1;rounded=0;" edge="1" parent="1" target="qCF6ly-BR2pwlYbQlXf5-3">
          <mxGeometry width="50" height="50" relative="1" as="geometry">
            <mxPoint x="410" y="440" as="sourcePoint" />
            <mxPoint x="460" y="390" as="targetPoint" />
          </mxGeometry>
        </mxCell>
        <mxCell id="q0EASoXGR-8S1qR7F3os-5" value="Rolly Polly" style="rounded=0;whiteSpace=wrap;html=1;" vertex="1" parent="1">
          <mxGeometry x="630" y="440" width="90" height="60" as="geometry" />
        </mxCell>
        <mxCell id="q0EASoXGR-8S1qR7F3os-6" value="Dung Beetle" style="rounded=0;whiteSpace=wrap;html=1;" vertex="1" parent="1">
          <mxGeometry x="500" y="440" width="110" height="60" as="geometry" />
        </mxCell>
        <mxCell id="q0EASoXGR-8S1qR7F3os-7" value="Termite" style="rounded=0;whiteSpace=wrap;html=1;" vertex="1" parent="1">
          <mxGeometry x="740" y="440" width="100" height="60" as="geometry" />
        </mxCell>
        <mxCell id="q0EASoXGR-8S1qR7F3os-8" value="" style="endArrow=classic;html=1;rounded=0;" edge="1" parent="1" target="qCF6ly-BR2pwlYbQlXf5-4">
          <mxGeometry width="50" height="50" relative="1" as="geometry">
            <mxPoint x="530" y="440" as="sourcePoint" />
            <mxPoint x="580" y="390" as="targetPoint" />
          </mxGeometry>
        </mxCell>
        <mxCell id="q0EASoXGR-8S1qR7F3os-9" value="" style="endArrow=classic;html=1;rounded=0;entryX=0.692;entryY=1;entryDx=0;entryDy=0;entryPerimeter=0;" edge="1" parent="1" target="qCF6ly-BR2pwlYbQlXf5-4">
          <mxGeometry width="50" height="50" relative="1" as="geometry">
            <mxPoint x="660" y="440" as="sourcePoint" />
            <mxPoint x="710" y="390" as="targetPoint" />
          </mxGeometry>
        </mxCell>
        <mxCell id="q0EASoXGR-8S1qR7F3os-10" value="" style="endArrow=classic;html=1;rounded=0;entryX=1;entryY=1;entryDx=0;entryDy=0;" edge="1" parent="1" target="qCF6ly-BR2pwlYbQlXf5-4">
          <mxGeometry width="50" height="50" relative="1" as="geometry">
            <mxPoint x="765" y="440" as="sourcePoint" />
            <mxPoint x="815" y="390" as="targetPoint" />
          </mxGeometry>
        </mxCell>
      </root>
    </mxGraphModel>
  </diagram>
</mxfile>
